<svg xmlns="http://www.w3.org/2000/svg" viewBox="0 0 760 330" role="img" aria-label="Gaia - your everyday AI agent">
  <defs>
    <linearGradient id="orb" x1="10%" y1="16%" x2="90%" y2="84%">
      <stop offset="0%" stop-color="#2456C8"/><stop offset="48%" stop-color="#009A9E"/><stop offset="100%" stop-color="#2BB36B"/>
    </linearGradient>
    <radialGradient id="orbhl" cx="72%" cy="26%" r="55%">
      <stop offset="0%" stop-color="#BFF3CE" stop-opacity="0.5"/><stop offset="60%" stop-color="#BFF3CE" stop-opacity="0"/>
    </radialGradient>
  </defs>
  <circle cx="102.5" cy="110" r="58" fill="url(#orb)"/>
  <circle cx="102.5" cy="110" r="58" fill="url(#orbhl)"/>
  <g transform="translate(192.5 168) scale(0.1602 -0.1602)"><path d="M784 280V115Q760 85 707.0 55.0Q654 25 581.5 5.5Q509 -14 425 -14Q307 -14 219.5 29.5Q132 73 83.5 155.0Q35 237 35 352Q35 465 82.5 546.0Q130 627 220.0 670.5Q310 714 435 714Q490 714 547.5 707.5Q605 701 654.5 691.0Q704 681 733 668L723 477H714Q693 552 656.0 592.5Q619 633 574.5 648.5Q530 664 485 664Q405 664 354.0 626.0Q303 588 279.0 516.5Q255 445 255 342Q255 248 275.5 179.0Q296 110 338.5 73.0Q381 36 447 36Q480 36 510.0 48.0Q540 60 559.5 84.0Q579 108 579 143L580 280Q580 325 529 325H513V335H849V325H834Q782 325 784 280ZM1392 724 1738 6H1498L1305 468ZM1177 73Q1168 53 1173.0 39.0Q1178 25 1190.5 17.5Q1203 10 1215 10H1224V0H1001V10Q1001 10 1005.5 10.0Q1010 10 1010 10Q1033 10 1057.5 24.5Q1082 39 1098 73ZM1392 724V568L1146 3H1065L1326 575Q1331 584 1339.5 603.5Q1348 623 1357.5 646.0Q1367 669 1374.5 690.0Q1382 711 1383 724ZM1474 216V166H1191V216ZM1469 73H1705Q1722 39 1746.0 24.5Q1770 10 1793 10Q1793 10 1797.0 10.0Q1801 10 1801 10V0H1422V10H1431Q1451 10 1466.5 26.5Q1482 43 1469 73ZM2253 700V0H2048V700ZM2051 73V0H1971V10Q1971 10 1977.5 10.0Q1984 10 1984 10Q2010 10 2028.5 28.5Q2047 47 2048 73ZM2051 627H2048Q2047 653 2028.5 671.5Q2010 690 1984 690Q1984 690 1977.5 690.0Q1971 690 1971 690V700H2051ZM2250 73H2253Q2254 47 2272.5 28.5Q2291 10 2317 10Q2317 10 2323.0 10.0Q2329 10 2330 10V0H2250ZM2250 627V700H2330V690Q2329 690 2323.0 690.0Q2317 690 2317 690Q2291 690 2272.5 671.5Q2254 653 2253 627ZM2890 724 3236 6H2996L2803 468ZM2675 73Q2666 53 2671.0 39.0Q2676 25 2688.5 17.5Q2701 10 2713 10H2722V0H2499V10Q2499 10 2503.5 10.0Q2508 10 2508 10Q2531 10 2555.5 24.5Q2580 39 2596 73ZM2890 724V568L2644 3H2563L2824 575Q2829 584 2837.5 603.5Q2846 623 2855.5 646.0Q2865 669 2872.5 690.0Q2880 711 2881 724ZM2972 216V166H2689V216ZM2967 73H3203Q3220 39 3244.0 24.5Q3268 10 3291 10Q3291 10 3295.0 10.0Q3299 10 3299 10V0H2920V10H2929Q2949 10 2964.5 26.5Q2980 43 2967 73Z" fill="#0F172A"/></g>
  <text x="380" y="236" text-anchor="middle" font-family="'Segoe UI',Helvetica,Arial,sans-serif" font-size="28" font-weight="600" fill="#475569" letter-spacing="1">your everyday AI agent</text>
  <text x="380" y="274" text-anchor="middle" font-family="'Segoe UI',Helvetica,Arial,sans-serif" font-size="16" font-weight="600" fill="#0E7490" letter-spacing="4">· FORGES ITS OWN SPECIALISTS · NEVER FORGETS ·</text>
</svg>
