<svg xmlns="http://www.w3.org/2000/svg" viewBox="0 0 1280 360" role="img" aria-label="Gaia - agents that build agents, and never forgets">
  <defs>
    <linearGradient id="bg" x1="0%" y1="0%" x2="100%" y2="100%">
      <stop offset="0%" stop-color="#0B1220"/>
      <stop offset="55%" stop-color="#0F172A"/>
      <stop offset="100%" stop-color="#0B1B19"/>
    </linearGradient>
    <radialGradient id="glow" cx="50%" cy="42%" r="55%">
      <stop offset="0%" stop-color="#0E7490" stop-opacity="0.45"/>
      <stop offset="55%" stop-color="#0E7490" stop-opacity="0.12"/>
      <stop offset="100%" stop-color="#0E7490" stop-opacity="0"/>
    </radialGradient>
    <linearGradient id="accent" x1="0%" y1="0%" x2="100%" y2="0%">
      <stop offset="0%" stop-color="#0E7490"/>
      <stop offset="100%" stop-color="#34D399"/>
    </linearGradient>
    <linearGradient id="mark" x1="0%" y1="0%" x2="100%" y2="100%">
      <stop offset="0%" stop-color="#22D3EE"/>
      <stop offset="100%" stop-color="#34D399"/>
    </linearGradient>
  </defs>

  <!-- ground -->
  <rect width="1280" height="360" fill="url(#bg)"/>
  <rect width="1280" height="360" fill="url(#glow)"/>

  <!-- Greek-key meander, top + bottom (classical motif, low-key) -->
  <g stroke="url(#accent)" stroke-width="3" fill="none" opacity="0.30" stroke-linecap="square">
    <path transform="translate(444 44)" d="M0 0h28v28h-18v-18h8v8M48 0h28v28h-18v-18h8v8M96 0h28v28h-18v-18h8v8M144 0h28v28h-18v-18h8v8M192 0h28v28h-18v-18h8v8M240 0h28v28h-18v-18h8v8M288 0h28v28h-18v-18h8v8"/>
    <path transform="translate(444 322)" d="M0 0h28v28h-18v-18h8v8M48 0h28v28h-18v-18h8v8M96 0h28v28h-18v-18h8v8M144 0h28v28h-18v-18h8v8M192 0h28v28h-18v-18h8v8M240 0h28v28h-18v-18h8v8M288 0h28v28h-18v-18h8v8"/>
  </g>

  <!-- wordmark -->
  <text x="640" y="190" text-anchor="middle" font-family="Georgia, 'Times New Roman', serif"
        font-size="132" font-weight="700" fill="#F8FAFC" letter-spacing="2">Γαῖα</text>

  <!-- accent underline with classical end-caps -->
  <g>
    <rect x="468" y="214" width="344" height="4" rx="2" fill="url(#accent)"/>
    <rect x="462" y="208" width="10" height="16" rx="1" fill="url(#mark)"/>
    <rect x="808" y="208" width="10" height="16" rx="1" fill="url(#mark)"/>
  </g>

  <!-- tagline -->
  <text x="640" y="262" text-anchor="middle" font-family="'Segoe UI', Helvetica, Arial, sans-serif"
        font-size="30" font-weight="600" fill="#CBD5E1" letter-spacing="1">agents that build agents</text>
  <text x="640" y="300" text-anchor="middle" font-family="'Segoe UI', Helvetica, Arial, sans-serif"
        font-size="20" font-weight="600" fill="#5EEAD4" letter-spacing="6">· NEVER FORGETS ·</text>
</svg>
